<svg xmlns="http://www.w3.org/2000/svg" viewBox="0 0 300 300">
  <!-- White circular background -->
  <circle cx="150" cy="150" r="150" fill="white"/>
  
  <!-- Gear icon centered at (150, 150) - accurate center from svgpathtools: (188.97, 160.00) -->
  <g transform="translate(150, 150) scale(1.906) translate(-188.97, -160.00)">
    <!-- Gear with settings -->
    <path
      fill="#21577a"
      d="M227.53,209.5c-2.91,1.74-4.73-1.48-7.22-3.03-1.11-.69-2.27-1.47-3.33-2.12-1.39-.85-2.87-1.58-4.26-2.44-2.39,1.1-4.73,2.24-7.23,3.08-.81.27-2.04.28-2.79.52-.18.06-1.21.15-1.66.67-.24.3-.47,2.67-.57,3.22-.44,2.53-.6,5.25-1.05,7.75-.19,1.03-.14,2.36-.5,3.34-.39,1.07-.93,1.84-2.26,2.06-4.57.21-10.54.58-15.14,0-1-.13-2.05-1.01-2.38-1.94-1.03-2.87-.93-5.79-1.35-8.74-.06-.45-.07-.85-.14-1.29-.17-1.09-.31-3.44-1.03-4.19-.14-.15-1.79-.86-2.17-1.01-2-.81-4.08-1.22-6.06-2.11-1.45-.65-2.73-1.72-4.24-.99-2.92,1.43-5.63,4.01-8.38,5.6-2.12,1.22-4.62,2.61-6.98,1.08-1.79-1.16-2.83-2.34-4.26-3.74-.29-.29-1.16-1.28-1.31-1.44-2.28-2.31-6.4-5.21-4.63-8.86.15-.31.42-.65.49-.78,1.23-2.17,2.56-3.77,3.92-5.8.55-.83,3.04-4.43,3.12-5.05.05-.36.03-.72-.1-1.07-1.47-2.87-2.79-5.83-3.85-8.87-4.61-1.48-9.51-1.87-14.1-3.42-.9-.89-1.65-1.38-1.83-2.73-.44-3.23-.11-7.42-.03-10.69.03-1.3-.12-1.73.03-3.31.4-4.16,4.5-3.81,7.48-4.4,1.6-.32,3.3-.58,4.89-.9.81-.16,2.57-.36,3.11-.7,1.04-.66,2.94-6.5,3.54-7.98.38-.94,1.36-1.76,1.08-2.89-.03-.11-1.05-1.77-1.23-2.02-1.53-2.24-3.77-4.49-5.31-6.81-1.27-1.92-2.25-3.89-1.19-6.2l9.57-9.62c.94-.53,1.9-1.38,3.07-1.15,4.8,1.79,8.74,5.31,13.32,7.58,2.51-.66,4.81-2.05,7.26-2.95,1.72-.63,4.77-.62,5.22-2.7.75-3.42.7-11.1,2.35-13.73.31-.5,1.28-1.45,1.9-1.46,4.73.35,10.01-.42,14.66,0,1.8.16,2.78,1.98,3.12,3.6.71,3.36.71,7.16,1.32,10.44.22,1.16.5,2.26,1.62,2.7,2.71,1.07,5.48,1.67,8.3,2.98,1.76.82,1.9,1.98,4.14.84,2.68-1.36,5.47-3.74,8.03-5.27,2.4-1.44,4.1-3.03,6.82-1.12,1.24.87,8.61,8.24,9.48,9.48.99,1.41.99,3.75.2,5.24-1.76,3.3-4.76,6.06-6.77,9.07-1.66,2.49-.27,3.06.69,5.49.82,2.07,1.56,4.17,2.41,6.23.24.37,1.87.79,2.45.91,3.19.68,7.02.78,10.14,1.62,1.66.45,3.02,1.17,3.59,2.89.6,1.81.42,11.51.26,13.92-.25,3.78-3.74,3.64-6.59,4.21-2.05.41-4.2.98-6.28,1.4-.78.16-1.88.07-2.7.29l-4.8,10.46.18.91c1.62,2.17,3.06,4.47,4.57,6.71.57.85,2.17,2.57,2.64,3.43.95,1.74,1.1,3.98-.03,5.65-1.2,1.77-1.94,2.58-3.87,4.43M214.61,151.4c-8.2-24.01-41.58-25-51.02-1.28-5.86,14.72,2.84,31.92,17.95,36.14,21.12,5.9,40.11-14.22,33.07-34.86Z"
    />
  </g>
</svg>
